# xmcd CD database file
#
# Track frame offsets:
#	150
#	18101
#	35809
#	56623
#	78669
#	95090
#	123798
#
# Disc length: 2984 seconds
#
# Revision: 0
# Processed by: cddbd v1.5.2PL0 Copyright (c) Steve Scherf et al.
# Submitted via: CDex 1.51
#
DISCID=540ba607
DTITLE=Taylor Swift - Speak Now [Deluxe Edition] Disc 2
DYEAR=2010
DGENRE=Country
TTITLE0=Ours
TTITLE1=If This Was A Movie
TTITLE2=Superman
TTITLE3=Back to December (acoustic)
TTITLE4=Haunted (Acoustic)
TTITLE5=Mine (US Version)
TTITLE6=Video Track
EXTD=YEAR: 2010
EXTT0=
EXTT1=
EXTT2=
EXTT3=
EXTT4=
EXTT5=
EXTT6=
PLAYORDER=
